REM DIRINDEX 1\2,1\3\5,1\3\6,1\4\7,1\4\8
REM DIRNAME folder01,folder02,folder03,folder04,folder05,folder06,folder07,folder08
TITLE ""
FILE "EG_E1.5_08.mp3" MP3
  TRACK 01 AUDIO
    TITLE "0:"
    INDEX 01 00:00:00
  TRACK 02 AUDIO
    TITLE "2:cjc139_0246"
    INDEX 01 00:00:17
  TRACK 03 AUDIO
    TITLE "0:"
    INDEX 01 00:02:32
  TRACK 04 AUDIO
    TITLE "2:cjc139_0247"
    INDEX 01 00:03:53
  TRACK 05 AUDIO
    TITLE "0:"
    INDEX 01 00:06:20
  TRACK 06 AUDIO
    TITLE "2:cjc139_0248"
    INDEX 01 00:07:43
  TRACK 07 AUDIO
    TITLE "0:"
    INDEX 01 00:10:10
  TRACK 08 AUDIO
    TITLE "2:cjc139_0249"
    INDEX 01 00:11:31
  TRACK 09 AUDIO
    TITLE "0:"
    INDEX 01 00:13:43
  TRACK 10 AUDIO
    TITLE "2:cjc139_0250"
    INDEX 01 00:14:64
  TRACK 11 AUDIO
    TITLE "0:"
    INDEX 01 00:17:69
  TRACK 12 AUDIO
    TITLE "2:cjc139_0251"
    INDEX 01 00:19:13
  TRACK 13 AUDIO
    TITLE "0:"
    INDEX 01 00:20:63
  TRACK 14 AUDIO
    TITLE "2:cjc139_0252"
    INDEX 01 00:22:09
  TRACK 15 AUDIO
    TITLE "0:"
    INDEX 01 00:24:27
  TRACK 16 AUDIO
    TITLE "2:cjc139_0253"
    INDEX 01 00:25:50
  TRACK 17 AUDIO
    TITLE "0:"
    INDEX 01 00:28:74
  TRACK 18 AUDIO
    TITLE "2:cjc139_0254"
    INDEX 01 00:30:20
  TRACK 19 AUDIO
    TITLE "0:"
    INDEX 01 00:32:52
  TRACK 20 AUDIO
    TITLE "2:cjc139_0255"
    INDEX 01 00:34:02
  TRACK 21 AUDIO
    TITLE "0:"
    INDEX 01 00:36:31
  TRACK 22 AUDIO
    TITLE "2:cjc139_0256"
    INDEX 01 00:37:52
  TRACK 23 AUDIO
    TITLE "0:"
    INDEX 01 00:40:30
  TRACK 24 AUDIO
    TITLE "2:cjc139_0257"
    INDEX 01 00:41:51
  TRACK 25 AUDIO
    TITLE "0:"
    INDEX 01 00:45:04
  TRACK 26 AUDIO
    TITLE "2:cjc139_0258"
    INDEX 01 00:46:27
  TRACK 27 AUDIO
    TITLE "0:"
    INDEX 01 00:49:29
  TRACK 28 AUDIO
    TITLE "2:cjc139_0259"
    INDEX 01 00:50:50
  TRACK 29 AUDIO
    TITLE "0:"
    INDEX 01 00:53:08
  TRACK 30 AUDIO
    TITLE "2:cjc139_0260"
    INDEX 01 00:54:30
  TRACK 31 AUDIO
    TITLE "0:"
    INDEX 01 00:57:25
  TRACK 32 AUDIO
    TITLE "2:cjc139_0261"
    INDEX 01 00:58:48
  TRACK 33 AUDIO
    TITLE "0:"
    INDEX 01 01:01:34
  TRACK 34 AUDIO
    TITLE "2:cjc139_0262"
    INDEX 01 01:02:55
  TRACK 35 AUDIO
    TITLE "0:"
    INDEX 01 01:04:35
  TRACK 36 AUDIO
    TITLE "2:cjc139_0263"
    INDEX 01 01:05:58
  TRACK 37 AUDIO
    TITLE "0:"
    INDEX 01 01:08:72
  TRACK 38 AUDIO
    TITLE "2:cjc139_0264"
    INDEX 01 01:10:18
  TRACK 39 AUDIO
    TITLE "0:"
    INDEX 01 01:12:28
  TRACK 40 AUDIO
    TITLE "2:cjc139_0265"
    INDEX 01 01:13:49
  TRACK 41 AUDIO
    TITLE "0:"
    INDEX 01 01:16:28
  TRACK 42 AUDIO
    TITLE "2:cjc139_0266"
    INDEX 01 01:17:49
  TRACK 43 AUDIO
    TITLE "0:"
    INDEX 01 01:19:74
  TRACK 44 AUDIO
    TITLE "2:cjc139_0267"
    INDEX 01 01:21:21
  TRACK 45 AUDIO
    TITLE "0:"
    INDEX 01 01:23:30
  TRACK 46 AUDIO
    TITLE "2:cjc139_0268"
    INDEX 01 01:24:53
  TRACK 47 AUDIO
    TITLE "0:"
    INDEX 01 01:26:30
  TRACK 48 AUDIO
    TITLE "2:cjc139_0269"
    INDEX 01 01:27:51
  TRACK 49 AUDIO
    TITLE "0:"
    INDEX 01 01:29:56
  TRACK 50 AUDIO
    TITLE "2:cjc139_0270"
    INDEX 01 01:31:02
  TRACK 51 AUDIO
    TITLE "0:"
    INDEX 01 01:33:17
  TRACK 52 AUDIO
    TITLE "2:cjc139_0271"
    INDEX 01 01:34:40
  TRACK 53 AUDIO
    TITLE "0:"
    INDEX 01 01:36:56
  TRACK 54 AUDIO
    TITLE "2:cjc139_0272"
    INDEX 01 01:38:04
  TRACK 55 AUDIO
    TITLE "0:"
    INDEX 01 01:41:09
  TRACK 56 AUDIO
    TITLE "2:cjc139_0273"
    INDEX 01 01:42:30
  TRACK 57 AUDIO
    TITLE "0:"
    INDEX 01 01:45:61
  TRACK 58 AUDIO
    TITLE "2:cjc139_0274"
    INDEX 01 01:47:09
  TRACK 59 AUDIO
    TITLE "0:"
    INDEX 01 01:49:53
  TRACK 60 AUDIO
    TITLE "2:cjc139_0275"
    INDEX 01 01:50:74
  TRACK 61 AUDIO
    TITLE "0:"
    INDEX 01 01:53:70
  TRACK 62 AUDIO
    TITLE "2:cjc139_0276"
    INDEX 01 01:55:20
  TRACK 63 AUDIO
    TITLE "0:"
    INDEX 01 01:58:25
  TRACK 64 AUDIO
    TITLE "2:cjc139_0277"
    INDEX 01 01:59:48
  TRACK 65 AUDIO
    TITLE "0:"
    INDEX 01 02:02:42
  TRACK 66 AUDIO
    TITLE "2:cjc139_0278"
    INDEX 01 02:03:65
  TRACK 67 AUDIO
    TITLE "0:"
    INDEX 01 02:06:55
  TRACK 68 AUDIO
    TITLE "2:cjc139_0279"
    INDEX 01 02:08:01
  TRACK 69 AUDIO
    TITLE "0:"
    INDEX 01 02:09:73
  TRACK 70 AUDIO
    TITLE "2:cjc139_0280"
    INDEX 01 02:11:19
  TRACK 71 AUDIO
    TITLE "0:"
    INDEX 01 02:13:26
  TRACK 72 AUDIO
    TITLE "2:cjc139_0281"
    INDEX 01 02:14:47
  TRACK 73 AUDIO
    TITLE "0:"
    INDEX 01 02:17:10
  TRACK 74 AUDIO
    TITLE "2:cjc139_0282"
    INDEX 01 02:18:31
  TRACK 75 AUDIO
    TITLE "0:"
    INDEX 01 02:20:73
